:FULLY-SPECIFIED
:FORCE-ALL-JOINTS-BE-3DOF
:DEGREES
194
root 8.1354 16.6407 -10.2503 6.98045 4.05048 -2.846
lfemur -39.0827 6.09728 -19.8415
ltibia 45.0342 0 0
lfoot -15.0718 9.85642 0
ltoes -12.4238 0 0
rfemur -9.94608 5.43246 28.8661
rtibia 24.2058 0 0
rfoot -20.8381 1.59908 0
rtoes -9.65128 0 0
lowerback -4.17457 1.5897 0.950208
upperback -1.38041 2.04652 3.34212
thorax 0.832075 1.03007 2.99969
lowerneck -13.7444 -6.74124 -15.6666
upperneck 13.2224 -8.71158 16.2457
head 7.77627 -3.66737 7.05495
lclavicle 1.99219e-14 2.69501e-14 0
lhumerus -48.9766 -9.73606 95.658
lradius 30.8843 0 0
lwrist 14.06 0 0
lhand -12.5441 -24.7627 0
lfingers 7.12502 0 0
lthumb 13.5326 4.77909 0
rclavicle 1.99219e-14 2.69501e-14 0
rhumerus -36.3322 8.38014 -78.0844
rradius 48.0333 0 0
rwrist -24.6607 0 0
rhand -34.258 -28.0906 0
rfingers 7.12502 0 0
rthumb -7.42867 -57.9404 0
195
root 8.14159 16.6356 -10.1186 6.94087 3.92924 -2.9435
lfemur -39.418 5.8134 -19.7462
ltibia 43.1438 0 0
lfoot -14.9979 9.49867 0
ltoes -12.6755 0 0
rfemur -9.04523 5.47974 29.0354
rtibia 23.5152 0 0
rfoot -20.7329 1.7748 0
rtoes -8.83937 0 0
lowerback -4.2731 1.55372 0.951445
upperback -1.11265 1.98623 3.34852
thorax 1.16499 0.996972 3.01108
lowerneck -14.705 -6.76465 -15.2343
upperneck 13.543 -8.69543 15.9373
head 8.01506 -3.6189 6.86789
lclavicle 1.44763e-14 2.76826e-14 0
lhumerus -48.5445 -9.61437 95.4804
lradius 30.5411 0 0
lwrist 13.513 0 0
lhand -12.4718 -24.623 0
lfingers 7.12502 0 0
lthumb 13.6024 4.91463 0
rclavicle 1.44763e-14 2.76826e-14 0
rhumerus -35.6549 8.53123 -78.2708
rradius 48.4039 0 0
rwrist -24.872 0 0
rhand -34.2221 -28.5121 0
rfingers 7.12502 0 0
rthumb -7.394 -58.3631 0
196
root 8.14779 16.6306 -9.98691 6.90748 3.81191 -3.0444
lfemur -39.7043 5.49642 -19.6209
ltibia 41.1999 0 0
lfoot -14.9271 9.15152 0
ltoes -12.8032 0 0
rfemur -8.12094 5.50037 29.2034
rtibia 22.7757 0 0
rfoot -20.5908 1.98436 0
rtoes -7.9878 0 0
lowerback -4.39125 1.50866 0.949157
upperback -0.816078 1.91231 3.3521
thorax 1.53912 0.956768 3.02216
lowerneck -15.8115 -6.79699 -14.7342
upperneck 13.9167 -8.6845 15.5785
head 8.29263 -3.56685 6.64984
lclavicle 7.23542e-15 2.71341e-14 0
lhumerus -48.0599 -9.52381 95.303
lradius 30.177 0 0
lwrist 12.9465 0 0
lhand -12.4861 -24.4327 0
lfingers 7.12502 0 0
lthumb 13.5886 5.1056 0
rclavicle 7.23542e-15 2.71341e-14 0
rhumerus -34.9455 8.7259 -78.4885
rradius 48.7831 0 0
rwrist -25.0618 0 0
rhand -34.1402 -28.9601 0
rfingers 7.12502 0 0
rthumb -7.31488 -58.8138 0
197
root 8.15398 16.6256 -9.85522 6.8831 3.68915 -3.15127
lfemur -39.9613 5.15149 -19.456
ltibia 39.2502 0 0
lfoot -14.8631 8.85786 0
ltoes -12.8813 0 0
rfemur -7.17381 5.50041 29.369
rtibia 21.9795 0 0
rfoot -20.4205 2.21614 0
rtoes -7.19409 0 0
lowerback -4.52114 1.46657 0.956986
upperback -0.532849 1.84169 3.35489
thorax 1.90637 0.91842 3.02717
lowerneck -16.8914 -6.82814 -14.2433
upperneck 14.2918 -8.67385 15.2236
head 8.56658 -3.51621 6.43512
lclavicle -4.6754e-16 2.55917e-14 0
lhumerus -47.6128 -9.46373 95.1507
lradius 29.8123 0 0
lwrist 12.3892 0 0
lhand -12.5464 -24.2332 0
lfingers 7.12502 0 0
lthumb 13.5305 5.30828 0
rclavicle -4.6754e-16 2.55917e-14 0
rhumerus -34.2969 8.94959 -78.7276
rradius 49.164 0 0
rwrist -25.2426 0 0
rhand -34.0351 -29.3914 0
rfingers 7.12502 0 0
rthumb -7.21352 -59.2484 0
198
root 8.16017 16.6205 -9.72353 6.87058 3.55165 -3.26668
lfemur -40.2087 4.78378 -19.2414
ltibia 37.3424 0 0
lfoot -14.8096 8.66057 0
ltoes -12.9845 0 0
rfemur -6.20443 5.48598 29.531
rtibia 21.1184 0 0
rfoot -20.2311 2.45853 0
rtoes -6.55575 0 0
lowerback -4.65491 1.43945 0.98857
upperback -0.305123 1.79132 3.35892
thorax 2.21865 0.89089 3.02038
lowerneck -17.7722 -6.84802 -13.8387
upperneck 14.6166 -8.65855 14.9269
head 8.79451 -3.47198 6.25806
lclavicle -7.29944e-15 2.33425e-14 0
lhumerus -47.293 -9.43349 95.0484
lradius 29.4675 0 0
lwrist 11.8696 0 0
lhand -12.612 -24.066 0
lfingers 7.12502 0 0
lthumb 13.4672 5.47898 0
rclavicle -7.29944e-15 2.33425e-14 0
rhumerus -33.8017 9.1877 -78.9779
rradius 49.5399 0 0
rwrist -25.4266 0 0
rhand -33.9301 -29.7628 0
rfingers 7.12502 0 0
rthumb -7.11215 -59.6233 0
199
root 8.16636 16.6155 -9.59183 6.87273 3.39009 -3.3932
lfemur -40.4661 4.39844 -18.9672
ltibia 35.5243 0 0
lfoot -14.7702 8.60254 0
ltoes -13.1875 0 0
rfemur -5.2134 5.46315 29.6884
rtibia 20.1847 0 0
rfoot -20.0315 2.69992 0
rtoes -6.17031 0 0
lowerback -4.78468 1.43934 1.05755
upperback -0.175062 1.77814 3.36623
thorax 2.42786 0.883143 2.99606
lowerneck -18.2814 -6.84652 -13.5971
upperneck 14.8394 -8.63365 14.7427
head 8.93402 -3.43915 6.15299
lclavicle -1.19271e-14 2.06736e-14 0
lhumerus -47.1904 -9.43243 95.021
lradius 29.1628 0 0
lwrist 11.4164 0 0
lhand -12.6424 -23.9726 0
lfingers 7.12502 0 0
lthumb 13.4379 5.57398 0
rclavicle -1.19271e-14 2.06736e-14 0
rhumerus -33.5527 9.42566 -79.2296
rradius 49.904 0 0
rwrist -25.6261 0 0
rhand -33.8481 -30.0312 0
rfingers 7.12502 0 0
rthumb -7.03297 -59.8943 0
200
root 8.17792 16.6067 -9.45138 6.88712 3.20727 -3.52847
lfemur -40.719 4.007 -18.6497
ltibia 33.7505 0 0
lfoot -14.7224 8.68069 0
ltoes -13.516 0 0
rfemur -4.22138 5.41461 29.8399
rtibia 19.2241 0 0
rfoot -19.865 2.95183 0
rtoes -6.099 0 0
lowerback -4.90515 1.46823 1.1691
upperback -0.164381 1.80593 3.37426
thorax 2.50862 0.897294 2.94793
lowerneck -18.345 -6.81799 -13.548
upperneck 14.9483 -8.59651 14.6923
head 8.96997 -3.41947 6.13363
lclavicle -1.39067e-14 1.69298e-14 0
lhumerus -47.3596 -9.46898 95.0831
lradius 28.9004 0 0
lwrist 11.0172 0 0
lhand -12.6484 -23.9566 0
lfingers 7.12502 0 0
lthumb 13.4321 5.59031 0
rclavicle -1.39067e-14 1.69298e-14 0
rhumerus -33.6105 9.67681 -79.4906
rradius 50.2654 0 0
rwrist -25.8528 0 0
rhand -33.7914 -30.197 0
rfingers 7.12502 0 0
rthumb -6.97822 -60.062 0
201
root 8.18949 16.5979 -9.31093 6.91099 3.01123 -3.66997
lfemur -40.9489 3.60764 -18.3001
ltibia 31.974 0 0
lfoot -14.6586 8.86009 0
ltoes -13.9156 0 0
rfemur -3.23203 5.33202 29.9862
rtibia 18.2522 0 0
rfoot -19.7331 3.22585 0
rtoes -6.27607 0 0
lowerback -5.02154 1.5169 1.31334
upperback -0.243695 1.8619 3.38088
thorax 2.49434 0.926596 2.87933
lowerneck -18.0862 -6.76939 -13.6356
upperneck 14.9823 -8.55053 14.7366
head 8.93326 -3.40928 6.17526
lclavicle -1.42159e-14 1.17504e-14 0
lhumerus -47.7396 -9.54534 95.2176
lradius 28.6645 0 0
lwrist 10.6466 0 0
lhand -12.6647 -23.9856 0
lfingers 7.12502 0 0
lthumb 13.4164 5.56235 0
rclavicle -1.42159e-14 1.17504e-14 0
rhumerus -33.9129 9.95547 -79.7704
rradius 50.6311 0 0
rwrist -26.0993 0 0
rhand -33.742 -30.2948 0
rfingers 7.12502 0 0
rthumb -6.93058 -60.1614 0
202
root 8.20105 16.5891 -9.17048 6.94671 2.80044 -3.82
lfemur -41.169 3.18549 -17.9009
ltibia 30.2393 0 0
lfoot -14.6053 9.13587 0
ltoes -14.3402 0 0
rfemur -2.22044 5.23495 30.1289
rtibia 17.2155 0 0
rfoot -19.5821 3.51048 0
rtoes -6.60851 0 0
lowerback -5.14181 1.58055 1.48133
upperback -0.378513 1.93811 3.38874
thorax 2.42508 0.966716 2.79893
lowerneck -17.6284 -6.70951 -13.8095
upperneck 14.9659 -8.49991 14.8391
head 8.85052 -3.4055 6.25455
lclavicle -1.3654e-14 5.86414e-15 0
lhumerus -48.2469 -9.65153 95.4022
lradius 28.4483 0 0
lwrist 10.3138 0 0
lhand -12.6863 -24.0469 0
lfingers 7.12502 0 0
lthumb 13.3956 5.5024 0
rclavicle -1.3654e-14 5.86414e-15 0
rhumerus -34.3687 10.2486 -80.0616
rradius 50.9919 0 0
rwrist -26.3489 0 0
rhand -33.6927 -30.3328 0
rfingers 7.12502 0 0
rthumb -6.88292 -60.201 0
203
root 8.21261 16.5802 -9.03004 6.99665 2.57339 -3.98089
lfemur -41.393 2.7257 -17.4345
ltibia 28.5913 0 0
lfoot -14.5889 9.50313 0
ltoes -14.7442 0 0
rfemur -1.16168 5.14296 30.2698
rtibia 16.0606 0 0
rfoot -19.3582 3.79422 0
rtoes -7.00332 0 0
lowerback -5.2739 1.65438 1.66415
upperback -0.534344 2.02664 3.40051
thorax 2.34092 1.01332 2.7154
lowerneck -17.0946 -6.64714 -14.0188
upperneck 14.9239 -8.44879 14.9633
head 8.74842 -3.40503 6.34818
lclavicle -1.30204e-14 -8.51852e-21 0
lhumerus -48.7981 -9.77758 95.6143
lradius 28.2455 0 0
lwrist 10.0279 0 0
lhand -12.7084 -24.1279 0
lfingers 7.12502 0 0
lthumb 13.3743 5.42277 0
rclavicle -1.30204e-14 -8.51852e-21 0
rhumerus -34.8869 10.543 -80.3566
rradius 51.3382 0 0
rwrist -26.5853 0 0
rhand -33.6359 -30.319 0
rfingers 7.12502 0 0
rthumb -6.82812 -60.189 0
204
root 8.22418 16.5714 -8.88959 7.06317 2.32858 -4.15495
lfemur -41.6341 2.2134 -16.8834
ltibia 27.0747 0 0
lfoot -14.6358 9.957 0
ltoes -15.0815 0 0
rfemur -0.0308231 5.0756 30.4106
rtibia 14.7341 0 0
rfoot -19.0076 4.06559 0
rtoes -7.36753 0 0
lowerback -5.42577 1.7336 1.85285
upperback -0.676697 2.11954 3.41883
thorax 2.28192 1.06209 2.63741
lowerneck -16.6082 -6.59109 -14.2132
upperneck 14.8807 -8.40137 15.073
head 8.6536 -3.4048 6.4328
lclavicle -1.31143e-14 -5.11319e-15 0
lhumerus -49.3098 -9.91349 95.8314
lradius 28.0493 0 0
lwrist 9.79812 0 0
lhand -12.7259 -24.216 0
lfingers 7.12502 0 0
lthumb 13.3574 5.33577 0
rclavicle -1.31143e-14 -5.11319e-15 0
rhumerus -35.3763 10.8257 -80.6478
rradius 51.6607 0 0
rwrist -26.7919 0 0
rhand -33.5644 -30.2616 0
rfingers 7.12502 0 0
rthumb -6.75907 -60.1339 0
205
root 8.23574 16.5626 -8.74914 7.14863 2.06448 -4.3445
lfemur -41.9059 1.63373 -16.2302
ltibia 25.7344 0 0
lfoot -14.7725 10.4926 0
ltoes -15.3063 0 0
rfemur 1.19704 5.05245 30.5529
rtibia 13.1824 0 0
rfoot -18.4767 4.31308 0
rtoes -7.60812 0 0
lowerback -5.60536 1.81341 2.03851
upperback -0.771081 2.20889 3.44638
thorax 2.28816 1.10868 2.57363
lowerneck -16.2925 -6.55015 -14.3419
upperneck 14.8609 -8.36179 15.1317
head 8.59271 -3.4017 6.4851
lclavicle -1.47349e-14 -8.74653e-15 0
lhumerus -49.6985 -10.0493 96.0312
lradius 27.8532 0 0
lwrist 9.63369 0 0
lhand -12.734 -24.2986 0
lfingers 7.12502 0 0
lthumb 13.3496 5.25371 0
rclavicle -1.47349e-14 -8.74653e-15 0
rhumerus -35.7458 11.0835 -80.9277
rradius 51.9499 0 0
rwrist -26.9523 0 0
rhand -33.4707 -30.1688 0
rfingers 7.12502 0 0
rthumb -6.66864 -60.0438 0
